<svg width="479" height="290" viewBox="0 0 479 290" xmlns:xlink="http://www.w3.org/1999/xlink" xmlns="http://www.w3.org/2000/svg"><defs/><g transform="translate(-150.00,-226.00)"><path fill-rule="nonzero" d="M155.0,86.0L155.0,.0L.0,.0L.0,86.0L155.0,86.0z" transform="translate(170.000000,322.000000)" id="shape1" stroke="#fff0e7" fill="#fff0e7" stroke-width="3"/><g transform="translate(151.000000,227.000000)" id="shape2"><path fill-rule="nonzero" d="M135.0,38.0L135.0,.0L.0,.0L.0,38.0L135.0,38.0z" stroke="#101843" fill="#ffffff" stroke-width="1"/><text xml:space="preserve" style="fill:#000000;font-family:Cica;font-size:10.00pt"><tspan x="24.2" y="22.5">topology.usda</tspan></text></g><g transform="translate(151.000000,302.000000)" id="shape3"><path fill-rule="nonzero" d="M135.0,38.0L135.0,.0L.0,.0L.0,38.0L135.0,38.0z" stroke="#101843" fill="#ffffff" stroke-width="1"/><text xml:space="preserve" style="fill:#000000;font-family:Cica;font-size:10.00pt"><tspan x="24.2" y="22.5">template.usda</tspan></text></g><g transform="translate(218.000000,302.000000)" id="shape4"><path d="M.0,.0L.0,-30.8" stroke="#000000" fill="none" stroke-width="2"/><path d="M.0,-37.0L-4.2,-29.7C-3.0,-30.4,-1.5,-30.8,.0,-30.8C1.5,-30.8,3.0,-30.4,4.2,-29.7L.0,-37.0" stroke-linecap="round" stroke="#000000" fill="#000000" stroke-width="1"/></g><g transform="translate(201.000000,274.000000)" id="shape5"><text xml:space="preserve" style="fill:#000000;font-family:Cica;font-size:10.00pt"><tspan x="33.3" y="17.5">SubLayer</tspan></text></g><g transform="translate(181.000000,350.000000)" id="shape6"><path fill-rule="nonzero" d="M135.0,31.0L135.0,7.0C135.0,3.1,131.9,.0,128.0,.0L7.0,.0C3.1,.0,.0,3.1,.0,7.0L.0,31.0C.0,34.9,3.1,38.0,7.0,38.0L128.0,38.0C131.9,38.0,135.0,34.9,135.0,31.0z" stroke="#101843" fill="#ffffff" stroke-width="1"/><text xml:space="preserve" style="fill:#000000;font-family:Cica;font-size:10.00pt"><tspan x="40.8" y="22.5">MeshPrim</tspan></text></g><g transform="translate(439.009843,411.000000)" id="group7"><path fill-rule="nonzero" d="M165.5,83.0L165.5,.0L.0,.0L.0,83.0L165.5,83.0z" transform="translate(22.500000,20.000000)" id="shape8" stroke="#fff0e7" fill="#fff0e7" stroke-width="3"/><g id="shape9"><path fill-rule="nonzero" d="M135.0,38.0L135.0,.0L.0,.0L.0,38.0L135.0,38.0z" stroke="#101843" fill="#ffffff" stroke-width="1"/><text xml:space="preserve" style="fill:#000000;font-family:Cica;font-size:10.00pt"><tspan x="34.2" y="22.5">clip.#.usd</tspan></text></g><g transform="translate(36.990157,50.000000)" id="shape10"><path fill-rule="nonzero" d="M135.0,31.0L135.0,7.0C135.0,3.1,131.9,.0,128.0,.0L7.0,.0C3.1,.0,.0,3.1,.0,7.0L.0,31.0C.0,34.9,3.1,38.0,7.0,38.0L128.0,38.0C131.9,38.0,135.0,34.9,135.0,31.0z" stroke="#101843" fill="#ffffff" stroke-width="1"/><text xml:space="preserve" style="fill:#000000;font-family:Cica;font-size:10.00pt"><tspan x="20.8" y="22.5">Clip Primitive</tspan></text></g></g><g transform="translate(316.000000,369.000000)" id="shape11"><path d="M.0,.0L95.0,.0L95.0,61.0L116.8,61.0" stroke="#000000" fill="none" stroke-width="2"/><path d="M123.0,61.0L115.7,56.8C116.4,58.0,116.8,59.5,116.8,61.0C116.8,62.5,116.4,64.0,115.7,65.2L123.0,61.0" stroke-linecap="round" stroke="#000000" fill="#000000" stroke-width="1"/></g><g transform="translate(439.009843,350.000000)" id="shape12"><path fill-rule="nonzero" d="M135.0,38.0L135.0,.0L.0,.0L.0,38.0L135.0,38.0z" stroke="#101843" fill="#ffffff" stroke-width="1"/><text xml:space="preserve" style="fill:#000000;font-family:Cica;font-size:10.00pt"><tspan x="24.2" y="22.5">manifest.usda</tspan></text></g><g transform="translate(316.000000,369.000000)" id="shape13"><path d="M.0,.0L116.8,.0" stroke="#000000" fill="none" stroke-width="2"/><path d="M123.0,.0L115.7,-4.2C116.4,-3.0,116.8,-1.5,116.8,.0C116.8,1.5,116.4,3.0,115.7,4.2L123.0,.0" stroke-linecap="round" stroke="#000000" fill="#000000" stroke-width="1"/></g><g transform="translate(311.000000,342.000000)" id="shape14"><text xml:space="preserve" style="fill:#000000;font-family:Cica;font-size:10.00pt"><tspan x="30.0" y="17.5">ValueClip</tspan></text></g><g transform="translate(287.000000,227.000000)" id="shape15"><text xml:space="preserve" style="fill:#000000;font-family:Cica;font-size:10.00pt"><tspan x="13.3" y="18.0">Clip対象以外の</tspan><tspan x="10.0" y="32.0">Prim＋Attribute</tspan></text></g></g></svg>