<svg height="325" width="274" viewBox="0 0 274 325" xmlns="http://www.w3.org/2000/svg" xmlns:xlink="http://www.w3.org/1999/xlink"><defs/><g transform="translate(-59.00,-50.00)"><g transform="translate(60.000000,51.000000)" id="group1"><path d="M11.0,.0L171.0,.0C177.1,.0,182.0,4.9,182.0,11.0L182.0,312.0C182.0,318.1,177.1,323.0,171.0,323.0L11.0,323.0C4.9,323.0,.0,318.1,.0,312.0L.0,11.0C.0,4.9,4.9,.0,11.0,.0z" fill="none" stroke="#47708d" stroke-width="1" id="shape2"/><g transform="translate(10.000000,0.000000)" id="shape3"><text style="fill:#ffffff;font-family:ＭＳ 明朝;font-size:12.00pt" xml:space="preserve"><tspan x="65.0" y="19.7">Head</tspan></text></g></g><g transform="translate(101.000000,92.000000)" id="shape4"><path d="M100.0,60.0L100.0,.0L.0,.0L.0,60.0L100.0,60.0z" fill-rule="nonzero" fill="#eaf3f4" stroke="#5cb8c0" stroke-width="1"/><text style="fill:#454545;font-family:Cica;font-size:10.00pt" xml:space="preserve"><tspan x="23.3" y="33.5">おおおお</tspan></text></g><g transform="translate(101.000000,187.000000)" id="shape5"><path d="M100.0,60.0L100.0,.0L.0,.0L.0,60.0L100.0,60.0z" fill-rule="nonzero" fill="#e8eaef" stroke="#315a9c" stroke-width="1"/><text style="fill:#454545;font-family:Cica;font-size:10.00pt" xml:space="preserve"><tspan x="16.7" y="33.5">あああああ</tspan></text></g><g transform="translate(151.000000,152.000000)" id="shape6"><path d="M.0,.0L.0,29.0" fill="none" stroke="#3d617b" stroke-width="1"/><path d="M3.0,29.0L.0,35.0L-3.0,29.0L3.0,29.0" fill="#3d617b" stroke-linecap="round" stroke="#3d617b" stroke-width="1"/></g><path d="M50.0,60.0L100.0,30.0L50.0,.0L.0,30.0L50.0,60.0z" fill-rule="nonzero" fill="#6eaad5" transform="translate(101.000000,273.000000)" stroke="#47708d" stroke-width="1" id="shape7"/><g transform="translate(151.000000,247.000000)" id="shape8"><path d="M.0,.0L.0,20.0" fill="none" stroke="#3d617b" stroke-width="1"/><path d="M3.0,20.0L.0,26.0L-3.0,20.0L3.0,20.0" fill="#3d617b" stroke-linecap="round" stroke="#3d617b" stroke-width="1"/></g><g transform="translate(201.000000,217.000000)" id="shape9"><path d="M.0,.0L86.0,.0L86.0,86.0L6.0,86.0" fill="none" stroke="#3d617b" stroke-width="1"/><path d="M6.0,89.0L.0,86.0L6.0,83.0L6.0,89.0" fill="#3d617b" stroke-linecap="round" stroke="#3d617b" stroke-width="1"/></g><g transform="translate(101.000000,122.000000)" id="shape10"><path d="M.0,.0L-28.0,.0L-28.0,95.0L-6.0,95.0" fill="none" stroke="#3d617b" stroke-width="1"/><path d="M-6.0,92.0L.0,95.0L-6.0,98.0L-6.0,92.0" fill="#3d617b" stroke-linecap="round" stroke="#3d617b" stroke-width="1"/></g><g transform="translate(151.000000,333.000000)" id="shape11"><path d="M.0,.0L.0,28.0L163.0,28.0L163.0,-211.0L56.0,-211.0" fill="none" stroke="#3d617b" stroke-width="1"/><path d="M56.0,-208.0L50.0,-211.0L56.0,-214.0L56.0,-208.0" fill="#3d617b" stroke-linecap="round" stroke="#3d617b" stroke-width="1"/><rect height="14.0" fill="#ffffff" width="26.7" x="150.7" y="-60.3"/><text style="font-family:Cica;font-size:10.00pt" xml:space="preserve"><tspan x="150.7" y="-49.0">はい</tspan></text></g></g></svg>